<svg id="Слой_1" data-name="Слой 1" xmlns="http://www.w3.org/2000/svg" width="2111.23" height="745.65" viewBox="0 0 2111.23 745.65"><defs><style>.cls-1{fill:#025196;}</style></defs><title>vdk</title><path class="cls-1" d="M0,115.81v60.46H482.43V55.35H0Z"/><path class="cls-1" d="M540.05,296.59V537.8h482.44V55.37H540.05ZM835.27,180.32c25.42,5.65,46.55,23.05,59,48.36,6.81,13.56,8.92,23.84,8.13,38.52-.56,9.72-2.83,23.5-4.86,30.17-.45,1.58,2.49,3.5,14.48,9.49,13.56,6.81,15.93,8.52,24.75,17.29,23.61,23.72,32,53.32,23.5,83.72-8.81,31.86-32.65,55.47-65.42,64.72-8.36,2.38-9.61,2.49-149.36,2.83l-141,.34V178.52H715.84c98.29,0,112.16.22,119.43,1.81Z"/><path class="cls-1" d="M662.86,248.79c-.45,7-.79,20.79-.79,30.5v17.88H735.3c79.76,0,82.81-.23,95.13-6.56A21.54,21.54,0,0,0,840,282c3-5,3.41-6.56,3.41-14.12-.11-17.29-8.92-25.76-31.18-30.05-7.66-1.35-20.79-1.7-79-1.7H663.53Z"/><path class="cls-1" d="M663.2,365.16c0,5.19-.34,18.87-.79,30.5l-.68,21.24H768.95c105.3,0,107.45,0,114.23-2.38,28-9.37,29-44.4,1.7-55.47l-6.44-2.6-107.56-.34-107.67-.34Z"/><path class="cls-1" d="M1083.47,296.59V537.8H1565.9V325.58c0-116.71.34-225.29.79-241.22l.68-29H1083.47Zm393.18-.56V415.78h28.25v85.87h-58.76V476.79H1204.39v24.86H1144.5V415.78H1175V365.72c0-52.87.79-62.82,5.65-81.57,15.14-57.17,62-96.22,126.54-105.52,4.63-.68,9.72-1.46,11.3-1.7s37.73-.45,80.56-.56l77.62-.11Z"/><path class="cls-1" d="M1313,237.38c-38.41,5-68.81,32.43-76.26,69-1.46,7.23-1.81,17.63-1.81,59.09v50.24h180.77V236.17l-47.69.11C1341.65,236.36,1316.91,236.82,1313,237.38Z"/><path class="cls-1" d="M1625.8,295.78V536.33l42.58.68c23.38.45,132,.79,241.22.79h198.62V55.37H1625.8Zm120.92-59v60.68l60.56-.56,60.67-.68,60-60,60-60,38.75.23,38.75.34-82.25,74.45c-45.19,40.87-82.36,74.94-82.6,75.36s36.83,34.34,82.25,75.24l82.6,74.34-38.64.34-38.75.23-60.56-60.46-60.56-60.46H1746.69V475.66h-58.76V176.25h58.76Z"/><path class="cls-1" d="M0,266.65v30.5H301.66v-61H0Z"/><path class="cls-1" d="M361.54,266.65v30.5H482.46v-61H361.54Z"/><path class="cls-1" d="M0,386.4v30.5H301.66V357.37l-22.26-.68c-12.2-.45-80-.79-150.83-.79H0Z"/><path class="cls-1" d="M362.67,386.4v30.5H380c9.61,0,36.5-.34,59.88-.79l42.58-.68V355.9H362.67Z"/><path class="cls-1" d="M0,507.29v30.5H301.66v-61H0Z"/><path class="cls-1" d="M361.54,507.29v30.5H482.46v-61H361.54Z"/><path class="cls-1" d="M506.49,599.26c-16.84,4.18-25.55,19.77-23.61,42.36,1.24,15.48,8.92,26.77,20.68,30.73,5.42,1.81,21.47.79,25.76-1.58,7.23-4,7.12-3.73,2.49-8.52l-4.39-4.47-5.11,1.6c-9.95,3-19.88-1-22.82-9.15-2-6-2.26-20.11-.23-26.89,2.83-9.95,13.11-15.33,21.92-11.75,4,1.7,4,1.7,8.13-2.6,2.38-2.38,3.84-4.86,3.5-5.54C530.11,599,516.1,596.77,506.49,599.26Z"/><path class="cls-1" d="M1323.24,599.82c-3.28,1.13-7.57,3.5-9.37,5.31-14.58,13.79-14.48,47.69.23,60.89,4.74,4.18,13.56,7.34,20.79,7.34,6,0,15.33-2.83,18.87-5.65l2.6-2.15-4.07-4.18c-4-4-4.4-4.07-7.79-2.83-8.25,2.83-18,.68-22.26-4.86-3.41-4.26-5.42-17.4-4-25,1.92-9.15,4.26-13.9,8.36-16.38s12.09-3,15.81-1c1.92,1,2.94.56,6.67-3,2.38-2.38,4.4-4.74,4.4-5.31s-2.15-1.92-4.74-3C1342.45,597.11,1331.27,597,1323.24,599.82Z"/><path class="cls-1" d="M84.06,601.48c-6.33,2.94-10.28,7.34-14.24,16-2.26,4.74-2.6,7.46-2.6,18.53,0,14,1.58,19.59,7.91,27.79,7.34,9.61,25.55,12.65,38,6.33,12.2-6.22,17.4-17.52,16.61-36.83C129,616,124.16,607,112.41,601.48,104.5,597.8,92.19,597.8,84.06,601.48Zm23.05,13.11c5.65,3.5,8.13,9.95,8.13,21.36,0,15.48-5.88,23.84-16.61,23.84-9.72,0-16.18-7.91-17-20.79-.68-10.73,1.24-17,6.56-22.37,3.73-3.84,4.86-4.26,9.72-4.26a18.15,18.15,0,0,1,9.22,2.25Z"/><path class="cls-1" d="M215.23,601c-6.56,2.94-13.34,11.19-15.81,19-2.83,8.81-2.71,23.61,0,32.54,2.71,8.36,11.07,17.4,18.19,19.59,5.76,1.7,16.49,1.7,22.37.11,6.42-1.85,14.79-10.23,17.49-17.55,4.52-12,4.07-30.05-1-39.89-2.71-5.42-9.72-12-14.91-14.24C235.56,598,221.1,598.25,215.23,601Zm23.16,14.35c5.88,5,7.23,8.92,7.34,20.22,0,8.13-.45,11.07-2.38,14.69-6.81,13-22.48,12.77-29-.34-3.5-7.23-3.62-21.36-.23-28C219.15,612.37,231.07,609.21,238.39,615.3Z"/><path class="cls-1" d="M385.27,605v6.22h3.84c4.63,0,6.33,1.92,7.57,8.7a31.32,31.32,0,0,0,3.73,9.37l2.71,4.07-3.16,3.5c-2,2.26-3.62,5.88-4.52,10.17-1.58,8-3.62,11.41-7.34,12.31-2.6.68-2.83,1.24-2.83,6.81v6.1h6.33c8.7,0,11.64-3,15.59-16.49,3.5-11.52,6.44-15.14,12.65-15.14h3.84v31.61h15.81V640.65h3.84c6.1,0,9.15,3.62,12.54,15.14,4,13.34,7,16.49,15.7,16.49h6.33v-6.1c0-5.54-.23-6.1-2.83-6.81-3.73-.9-5.76-4.26-7.34-12.54-1.13-5.19-2.26-7.57-5.19-10.4-2.6-2.49-3.28-3.73-2.26-4.07,2-.79,6.33-9.83,6.33-13.34,0-4.63,3-7.79,7.46-7.79h3.84V598.81H472.8c-6.22,0-12.42,2.38-14,5.42a71.09,71.09,0,0,0-3,10.4c-2.26,10.28-5.19,13.56-11.75,13.56h-4.52V599.94h-15.8v28.25h-4.07c-7.66,0-10.4-3.28-12.88-15.25a54.85,54.85,0,0,0-2.49-8.81c-1.46-2.94-7.79-5.31-13.9-5.31h-5.11Z"/><path class="cls-1" d="M583.32,600.5c-4.26,1.81-5.31,3.62-7.12,12.42-2.49,12-5.19,15.25-12.88,15.25h-4.06V599.94H543.44v72.3h15.81V640.65h3.84c6.1,0,9.15,3.62,12.54,15.14,4,13.34,7,16.49,15.7,16.49h6.33v-6.1c0-5.54-.23-6.1-2.83-6.81-3.73-.9-5.76-4.26-7.34-12.31-.9-4.26-2.49-7.91-4.4-10.17l-3.16-3.5,2.6-3.84a22.33,22.33,0,0,0,3.28-8c1.13-7.23,2.94-9.72,7.66-10.06l4.18-.34V598.81h-5.31A29.26,29.26,0,0,0,583.32,600.5Z"/><path class="cls-1" d="M1071.54,601.48c-6.33,2.94-10.28,7.34-14.24,16-2.26,4.74-2.6,7.46-2.6,18.53,0,14,1.58,19.59,7.91,27.79,7.34,9.61,25.55,12.65,38,6.33,12.2-6.22,17.4-17.52,16.61-36.83-.68-17.4-5.54-26.32-17.29-31.86C1092,597.8,1079.65,597.8,1071.54,601.48Zm23,13.14c5.65,3.41,8.25,10.4,8.25,21.58,0,15-6.1,23.61-16.72,23.61-9.72,0-16.18-7.91-17-20.79-.68-10.73,1.24-17,6.56-22.37,3.73-3.84,4.86-4.26,9.72-4.26A17.88,17.88,0,0,1,1094.54,614.62Z"/><path class="cls-1" d="M1403.57,600.5c-4.4,1.92-5.42,3.73-7.79,14.12s-5.19,13.56-11.75,13.56h-4.52V599.94h-15.81v72.3h15.81V640.65h3.7c7,0,8.58,2.26,13.11,17.74,3.16,10.62,6.81,13.9,15.48,13.9h6.1v-6.22c0-4.86-.34-6.22-1.7-6.22-3.62,0-7.12-5.19-8.58-12.54-1.13-5.76-2.15-8-5.19-11-2.15-1.92-3.5-3.62-2.94-3.62,1.7,0,5.88-7.34,6.56-11.86,1.24-6.67,3.41-9.61,7.34-9.61,3.41,0,3.41-.11,3.41-6.22v-6.22H1412A27.51,27.51,0,0,0,1403.57,600.5Z"/><path class="cls-1" d="M1619.59,599.6c-5.11,1.24-7.46,5.19-9.61,16.38-1.7,8.52-5.11,12.2-11.3,12.2h-4.52V599.94h-15.81v72.3h15.81V640.65h3.73c6.22,0,8.25,2.38,12,14.48,4.52,14.58,7,17.18,16,17.18h6.67v-6c0-5.54-.23-6-3.73-7.57-2.71-1.24-4-2.94-5.19-6.81-3.62-12-5-14.91-7.57-16.61l-2.71-1.7,3.28-3.73a17.88,17.88,0,0,0,4.07-9.15c.9-6.67,3.16-9.49,7.57-9.49,3,0,3.16-.11,3.16-6.22v-6.22l-4.74.11A66.19,66.19,0,0,0,1619.59,599.6Z"/><path class="cls-1" d="M1657.89,601.48c-6.33,2.94-10.28,7.46-14.24,16-2.15,4.63-2.49,7.57-2.6,18.53,0,14,1.58,19.43,7.91,27.79,7.34,9.61,25.55,12.65,38,6.33,11.64-5.88,16.84-16.61,16.84-34.79,0-13.79-2.71-21.58-10.06-28.7-6.1-6-11.41-7.91-22.26-7.91C1665.57,598.81,1662.19,599.49,1657.89,601.48Zm23.05,13.11c5.65,3.41,8.58,11,8.52,21.69-.11,14.69-6.44,23.5-16.95,23.5-9.72,0-16.27-8.36-17-21.47-.56-10.06,1.35-16.49,6.56-21.69,3.73-3.84,4.86-4.26,9.72-4.26a17.88,17.88,0,0,1,9.19,2.26Z"/><path class="cls-1" d="M7.9,636.09v36.16H25.78c14.58,0,18.42-.34,21.69-2,10.85-5.42,13.67-24.06,5-32.77l-3.84-3.84,2.49-3.5c3.5-5,4.18-16.72,1.13-22.14-3.73-6.89-7.46-8-27-8H7.9Zm30.5-21.47a9,9,0,0,1,2.26,5.65c0,5.65-3.41,7.91-11.86,7.91H21.46V612.37H28.8c5.88,0,7.8.45,9.61,2.26Zm1.35,29c2.6,2.26,3.41,6.44,1.92,10.17-1.58,4.4-2.71,4.86-12,4.86H21.46V640.38l8.25.79c4.52.45,8.91,1.58,10.06,2.49Z"/><path class="cls-1" d="M142.35,636.09v36.16h13.56V645.13h10.51c16-.11,22.48-4,25.65-15.81,2.83-10.4-.79-21.36-8.92-26.77-3.62-2.49-5-2.6-22.26-2.6H142.35Zm31.29-19.77c3.28,3.73,3.28,8.36.23,12.31-2.15,2.71-3,2.94-10.17,2.94h-7.79V612l7.57.68c6.43.49,8,1.06,10.16,3.65Z"/><path class="cls-1" d="M272.28,636.09v36.16h13.56V640.65h21.47v31.59h13.56v-72.3H307.31v28.25H285.84V599.94H272.28Z"/><path class="cls-1" d="M337.81,636.09v36.16h41.91l-.34-6.56-.34-6.44-13.22-.34-13.33-.37V640.65h20.33V627H352.5V612.37h26V599.94H337.81Z"/><path class="cls-1" d="M624.22,601.3c-3.5,9.49-24.29,69.94-24.29,70.39s3.41.56,7.57.34l7.46-.34,2.49-7.34,2.49-7.34,12.54-.34,12.54-.34,2.49,8,2.6,7.91h14.35c13.79,0,14.58-.11,17.88-2.94s4.4-5.19,8-19.43c1.7-6.67,4.63-9.26,10.17-9.26H705v31.63h15.81V599.86l-19.88.34-19.88.34-3.73,4.18c-8.92,9.72-7.46,24.41,3.16,29.94l3.16,1.58-2.83,3.28c-1.58,1.92-3.41,6.22-4.07,9.72-1.46,7-4.26,10.62-8.36,10.62-2.49,0-2.83.56-3.16,4.74s-1.81.9-12.77-29.94L640.06,600h-7.66Q624.73,599.94,624.22,601.3ZM705,621.52v9.26l-7-.79c-8.13-.9-9.95-2.49-9.95-8.58,0-6.81,2.6-8.81,11.64-8.92l5.31-.11Zm-68.46,9.83,4,11.52h-7.91c-9.15,0-8.7,1.81-3.5-14.35,1.58-5.11,3-9.15,3.28-8.92s2.15,5.54,4.18,11.75Z"/><path class="cls-1" d="M766.8,614.26c-.68,16-3,29-7.23,39.55-2.38,6-3.28,7.12-5.54,7.12h-2.67V690.3H766V672.25h37.3v18.08H818V660.95h-9.05v-61H767.48Zm28.59,22.37v24.29h-12c-9.37,0-11.86-.34-11.41-1.46,3.5-9,8.7-34.79,8.7-42.71v-4.4h14.68Z"/><path class="cls-1" d="M828.16,636.09v36.16H870V658.69H842.84v-18h20.33V627H842.84V612.37h26V599.94H828.16Z"/><path class="cls-1" d="M879,636.09v36.16h18.08c20.44,0,22.6-.56,27.91-7.46,2.49-3.41,3.16-5.54,3.5-11.75.45-8.25-.79-12.2-5.88-16.84l-2.83-2.71,2.15-2.83c6.81-8.58,4.86-23.27-3.73-28.47-3.16-2-5.76-2.26-21.36-2.26H878.95Zm30.28-21.92c3.28,2.26,3.41,8.58.23,11.75-1.81,1.81-3.73,2.26-9.61,2.26h-7.34V612.37h7.12c4.51,0,7.9.56,9.6,1.81Zm.34,28.25c4.07,1.13,5.65,9.49,2.6,13.79-1.46,2.26-2.71,2.49-10.73,2.49h-8.93V640.38l7.66.68a82.43,82.43,0,0,1,9.4,1.35Z"/><path class="cls-1" d="M941.13,636.09v36.16H981.8V658.69H954.69v-18h21.48V627H954.7V612.37h26V599.94H941.15Z"/><path class="cls-1" d="M999.66,625c-.34,28.81-1,31.29-8.92,34.68-4.26,1.7-4.4,2-4.4,7.34v5.54l6.1-.68c7.91-.79,12.42-3.28,15.93-8.52,4-6.1,5.11-12.09,5.88-32.77l.68-18.3h13.2v59.93h13.56v-72.3H999.95Z"/><path class="cls-1" d="M1129.82,636.09v36.16h13.56V612.37H1166v59.88h13.56v-72.3h-49.71Z"/><path class="cls-1" d="M1193.09,636.09v36.16h41.8V658.69h-27.1v-18h21.47V627h-21.47V612.37h26V599.94h-40.67Z"/><path class="cls-1" d="M1246.19,636.09v36.16h13.55V645.13h10.51c16.27-.11,22.71-4.07,25.76-16.27,2.6-10.62-1.35-22.14-9.15-26.55-3.84-2.15-6-2.38-22.48-2.38h-18.19Zm31.29-19.77c3.28,3.73,3.28,8.36.23,12.31-2.15,2.71-3,2.94-10.17,2.94h-7.81V612l7.57.68c6.45.49,8,1.06,10.18,3.65Z"/><path class="cls-1" d="M1445,600.27c0,.23-5.54,16.38-12.42,35.93s-12.42,35.59-12.42,35.71a54,54,0,0,0,7.66.34h7.66l2.6-7.91,2.49-8,12.54.34,12.54.34,2.49,7.34,2.49,7.34,7.46.34c4.4.23,7.57-.11,7.57-.79s-5.65-16.84-12.54-36.16l-12.65-35.13h-7.66C1448.53,599.94,1445,600.05,1445,600.27Zm12.2,32.09,3.47,10.51h-8c-5.88,0-7.79-.34-7.34-1.46l3.73-11.19c1.7-5.54,3.5-9.61,4-9s2.29,5.54,4.22,11.18Z"/><path class="cls-1" d="M1500.28,602.54c-5.19,3.41-7.79,9-7.79,16.61,0,7.34,2.71,12.54,8,15.25l3.5,1.92-2.26,2.38c-1.35,1.35-3.16,5.42-4.07,8.92-2.26,8.92-3.73,11.07-7.57,11.86-3.16.56-3.28.9-3.28,6.67v6.1h6.56c4,0,7.46-.68,8.92-1.7,2.6-1.81,5.88-9.72,8.25-19.59,1.58-6.89,5.19-10.4,10.85-10.4h3.84v31.69h15.81v-72.3h-18.53C1505.25,599.94,1503.89,600.05,1500.28,602.54Zm25,19v9.26l-6.44-.79c-9.49-1-12.77-5.88-9.26-13.56,1.46-3.28,2.83-3.73,10.4-4l5.31-.11Z"/><path class="cls-1" d="M1719.13,603.55c-.68,3.84-5.19,62.26-5.19,66.32,0,2.15.68,2.38,7.23,2.38h7.23l.56-3.73c.45-1.92,1-11.41,1.46-20.91s1.13-17.18,1.46-17.18,2.94,9.37,5.65,20.91l5.11,21,7.91-.34,7.91-.34,5.88-22.6,6-22.6.11,7.91c.11,4.26.56,14.48,1,22.6l.68,14.69,7.79.34,7.79.34-.68-8.25c-.45-4.52-1.24-19.21-1.92-32.54s-1.46-26-1.81-28l-.56-3.73-9.72.34-9.72.34-6,21.47c-3.28,11.75-6.22,22.26-6.33,23.16s-2.6-6.22-5.31-15.81-5.54-20.22-6.44-23.5l-1.7-5.88h-17.88Z"/><path class="cls-1" d="M1799.8,636.09v36.16h13.56V612.37h24.86v59.88h13.56v-72.3h-51.94Z"/><path class="cls-1" d="M1880,603.55c-3.84,10.73-23.72,68-23.72,68.35s3.41.34,7.57.11l7.46-.34,2.49-7.34,2.49-7.34h25.55l2.49,7.34,2.49,7.34,7.46.34c4.18.23,7.57-.11,7.57-.56s-5.65-16.84-12.65-36.27l-12.65-35.25H1889C1881.37,599.94,1881.37,599.94,1880,603.55Zm13.34,28.81,3.5,10.51h-8c-5.88,0-7.79-.34-7.34-1.46l3.73-11.19c1.7-5.54,3.5-9.61,4-9s2.26,5.54,4.18,11.18Z"/><path class="cls-1" d="M1925.2,636.09v36.16h14.69V640.65h23.72v31.59h14.69v-72.3h-14.69v28.25h-23.72V599.94H1925.2Z"/><path class="cls-1" d="M1991.86,636.09v36.16H2006l11.87-21.37,11.86-21.36.34,21.36.23,21.36h13.56V599.94h-14.12l-11.86,22L2006,644l-.34-22-.23-22h-13.56Z"/><path class="cls-1" d="M2067.56,602.54c-5.42,3.62-8.25,8.92-8.25,15.81-.11,7.23,2.6,12.65,7.79,15.7l4,2.38-2.35,2.52c-1.24,1.35-3.28,6-4.4,10.17-2.26,8.13-4.4,10.73-8.81,10.73-2.38,0-2.6.45-2.6,6.22v6.22h7.23c10.51,0,12.65-2.6,17.63-21.47,1.92-7.46,3.62-9.26,9.49-9.83l5.19-.68v31.94h15.81v-72.3h-18.53C2072.42,599.94,2071.06,600.05,2067.56,602.54Zm24.86,19v9.26L2086,630c-9.37-1-12.42-5.54-9.49-13.56,1.24-3.16,2.94-3.73,10.62-4l5.31-.11Z"/></svg>