<?xml version="1.0" encoding="utf-8"?>
<!-- Generator: Adobe Illustrator 22.0.0, SVG Export Plug-In . SVG Version: 6.00 Build 0)  -->
<svg version="1.1" id="Слой_1" xmlns="http://www.w3.org/2000/svg" xmlns:xlink="http://www.w3.org/1999/xlink" x="0px" y="0px"
	 width="1757.1px" height="782.1px" viewBox="0 0 1757.1 782.1" style="enable-background:new 0 0 1757.1 782.1;"
	 xml:space="preserve">
<style type="text/css">
	.st0{fill:#1D4E9A;}
</style>
<g transform="translate(0.000000,1013.000000) scale(0.100000,-0.100000)">
	<path class="st0" d="M6558.3,10008.4c-879-399-1880-760-2825-1019c-971-266-1938-460-3220-645l-435-63l2898-1l2897-1v448v447
		l408,153c224,84,414,152,422,153c8,0,288-69,622-153l608-153v-447v-448l4433,1c3758,1,4411,4,4297,15c-74,7-315,29-535,49
		c-2272,204-4066,461-5577,799c-564,127-955,226-2043,516c-616,164-1704,440-1735,440C6765.3,10099.4,6668.3,10058.4,6558.3,10008.4
		z"/>
	<path class="st0" d="M6363.3,9249.4l-375-127v-2511v-2512l348-170c192-93,356-170,365-170c8,0,265,77,569,172l553,172v2507v2507
		l-62,15c-35,9-274,66-533,127c-258,61-475,112-480,114C6742.3,9375.4,6569.3,9319.4,6363.3,9249.4z M7256.3,8978.4l397-73v-154
		v-154l-27,6c-16,3-215,37-443,76s-425,73-437,75c-23,5-23,8-23,164v159l68-13C6828.3,9057.4,7037.3,9019.4,7256.3,8978.4z
		 M7206.3,8353.4l447-59v-157c0-120-3-158-12-158c-7-1-217,23-465,52l-453,52v169c0,155,1,168,18,164
		C6750.3,8413.4,6959.3,8385.4,7206.3,8353.4z M7193.3,7713.4c245-25,446-47,447-48c2-1,6-73,9-159l7-158l-39,6c-49,7-853,85-876,85
		c-16,0-18,14-18,160c0,121,3,160,13,160C6742.3,7759.4,6948.3,7738.4,7193.3,7713.4z M7601.3,7083.4l52-5v-149v-148l-377-6
		c-208-4-417-7-466-9l-87-2v169v168l413-6C7362.3,7091.4,7572.3,7086.4,7601.3,7083.4z M7653.3,6339.4v-159l-32-5
		c-43-7-823-66-865-66h-33v165c0,91,1,165,3,166c1,0,202,13,447,28c245,16,453,29,463,30C7651.3,6499.4,7653.3,6485.4,7653.3,6339.4
		z M7648.3,5733.4c4-85,5-157,3-159c-1-2-201-26-443-54s-450-54-462-56l-23-5v165c0,125,3,165,13,166c6,0,201,22,432,48
		c231,27,432,49,446,50l26,1L7648.3,5733.4z M7653.3,5155.4c0-151,0-154-22-159c-13-3-216-47-453-97c-236-50-436-93-443-95
		c-10-4-12,29-10,157l3,161l450,93c248,51,456,92,463,93C7650.3,5309.4,7653.3,5272.4,7653.3,5155.4z M7653.3,4534.4v-155l-27-6
		c-16-4-225-58-466-119l-437-111l2,159l3,160l455,113c250,62,458,113,463,113C7650.3,4689.4,7653.3,4619.4,7653.3,4534.4z"/>
	<path class="st0" d="M12553.3,7488.4c-233-26-462-116-643-253c-557-419-815-1339-621-2214c88-396,262-724,512-964
		c234-224,494-338,835-364l87-6v1906v1906l-47-1C12649.3,7497.4,12594.3,7493.4,12553.3,7488.4z"/>
	<path class="st0" d="M12973.3,5594.4v-1907l93,7c531,40,929,328,1181,856c98,207,162,418,203,679c25,163,25,586,0,750
		c-129,833-570,1379-1208,1494c-46,8-126,18-176,22l-93,7V5594.4z"/>
	<path class="st0" d="M-6.7,5584.4v-1855h640h640v1855v1855h-640h-640C-6.7,7439.4-6.7,5584.4-6.7,5584.4z"/>
	<path class="st0" d="M1463.3,5584.4v-1855h233c248,0,316,9,424,52c502,203,709,1050,378,1548c-58,87-175,198-260,245
		c-81,46-218,91-303,101l-62,7v43c0,43,1,43,43,54c278,69,485,284,569,591c20,73,23,106,22,254c-1,155-3,178-28,260
		c-71,234-202,392-401,485c-124,58-194,70-419,70h-196V5584.4z"/>
	<path class="st0" d="M2873.3,5584.4v-1855h640h640v1855v1855h-640h-640L2873.3,5584.4L2873.3,5584.4z"/>
	<path class="st0" d="M8123.3,5584.4v-1855h635h635v1855v1855h-635h-635V5584.4z"/>
	<path class="st0" d="M9595.3,7430.4c6-15,1143-1350,1151-1350c4-1,7,305,7,679v680h-581C9853.3,7439.4,9593.3,7435.4,9595.3,7430.4
		z"/>
	<path class="st0" d="M14663.3,5584.4v-1855h635h635v1855v1855h-635h-635V5584.4z"/>
	<path class="st0" d="M16163.3,6309.4v-1130h178c187,0,309,14,424,50c470,145,766,596,744,1135c-8,205-40,335-126,510
		c-117,238-319,416-568,501c-147,50-247,64-463,64h-189V6309.4z"/>
	<path class="st0" d="M4363.3,4859.4v-1132l238,4c213,5,247,8,333,31c412,109,706,451,785,912c24,144,15,385-19,516
		c-104,397-374,665-772,766c-89,22-126,26-332,30l-233,5V4859.4z"/>
	<path class="st0" d="M9643.3,4859.4v-1130h164c319,0,521,52,718,183c236,157,400,419,453,721c19,114,19,328,0,442
		c-72,410-329,724-699,853c-136,48-233,61-447,61h-189V4859.4z"/>
	<path class="st0" d="M325.3,3218.4c-162-27-281-145-312-309c-15-77-12-237,5-303c34-132,106-225,213-275c51-24,69-27,162-27
		c86,1,116,5,162,24c73,29,159,106,192,173c41,83,38,90-51,121c-43,15-83,27-90,27c-6,0-14-14-18-31c-9-39-61-98-102-115
		c-81-34-187-7-238,60c-57,75-73,227-35,330c25,67,92,132,145,142c55,10,133-1,163-23c25-19,66-71,74-94c5-15,168,31,175,48
		c8,22-24,96-61,139c-44,51-118,91-203,109C431.3,3230.4,403.3,3231.4,325.3,3218.4z"/>
	<path class="st0" d="M2793.3,3218.4c-207-35-343-212-344-449c0-206,106-375,277-443c74-29,240-29,314,0c171,68,274,232,276,438
		c1,141-34,240-118,333c-56,62-143,107-235,122C2889.3,3230.4,2869.3,3230.4,2793.3,3218.4z M2986.3,3037.4c54-30,103-96,123-165
		c21-73,15-191-13-254c-83-187-330-194-419-12c-40,81-46,201-14,286C2720.3,3044.4,2860.3,3106.4,2986.3,3037.4z"/>
	<path class="st0" d="M11665.3,3218.4c-113-22-225-106-276-208c-123-242-34-560,186-664c114-54,272-54,386,0
		c225,106,311,429,180,675C12057.3,3179.4,11866.3,3258.4,11665.3,3218.4z M11834.3,3057.4c128-38,206-217,165-378
		c-34-131-102-193-220-198c-60-3-78,0-116,20c-129,70-176,269-99,426C11621.3,3043.4,11721.3,3091.4,11834.3,3057.4z"/>
	<path class="st0" d="M853.3,3129.4v-80h130h130v-365v-365h95h95v365v365h130h130v80v80h-355h-355V3129.4z"/>
	<path class="st0" d="M1663.3,2765.4v-446h95h95v164v164l153,4c169,4,201,13,267,80c103,103,98,305-11,403c-72,65-88,68-356,73
		l-243,4V2765.4z M2109.3,3016.4c30-28,37-42,41-83c5-43,2-54-22-82c-33-40-77-52-187-52h-88v125v125h110h110L2109.3,3016.4z"/>
	<path class="st0" d="M3433.3,2764.4v-445h93h92l170,269l170,269l3-269l2-269h85h85v445v445h-87l-88-1l-175-282l-175-281l-3,282
		l-2,282h-85h-85V2764.4z"/>
	<path class="st0" d="M4253.3,3129.4v-80h130h130v-365v-365h95h95v365v365h130h130v80v80h-355h-355V3129.4z"/>
	<path class="st0" d="M5063.3,2764.4v-445h345h345v75v75h-245h-245v115v115h220h220v80v80h-220h-220v95v95h235h235v80v80h-335h-335
		V2764.4z"/>
	<path class="st0" d="M5941.3,2837.4l-3-373l-57-3l-58-3v-69v-70h104c90,0,107,3,137,23c19,12,43,40,54,62c18,37,20,63,23,343l3,302
		h120h119v-365v-365h100h100v445v445h-320h-320L5941.3,2837.4z"/>
	<path class="st0" d="M6753.3,2764.4v-445h258c285,0,317,5,384,60c58,48,88,119,88,209c0,88-19,139-71,190c-65,65-103,76-296,79
		l-173,4v174v174h-95h-95V2764.4z M7257.3,2670.4c58-55,55-129-7-175c-25-19-45-21-178-24l-149-4v117v116l154-3
		C7225.3,2694.4,7233.3,2693.4,7257.3,2670.4z"/>
	<path class="st0" d="M7623.3,2764.4v-445h100h100v190v190h160h160v-190v-190h95h95v445v445h-95h-95v-175v-175h-160h-160v175v175
		h-100h-100V2764.4z"/>
	<path class="st0" d="M8593.3,2777.4c-95-238-174-439-177-445c-4-10,21-13,104-13h108l35,100l35,100h170h170l35-97l35-98l98-3
		c97-3,98-2,92,19c-4,12-78,211-165,443l-158,421l-105,3l-105,3L8593.3,2777.4z M8908.3,2825.4c25-70,45-132,45-137s-43-9-95-9
		s-95,3-95,6c0,10,94,273,97,270C8861.3,2954.4,8883.3,2895.4,8908.3,2825.4z"/>
	<path class="st0" d="M9580.3,3198.4c-81-19-144-65-180-134c-16-30-22-58-22-115c0-64,4-82,28-122c29-50,89-93,145-104l31-6l-51-62
		c-80-95-198-290-198-326c0-6,37-10,98-10l97,1l55,90c30,50,88,131,128,180l73,89h64h65v-180v-180h100h100v445v445l-247-1
		C9729.3,3207.4,9601.3,3203.4,9580.3,3198.4z M9913.3,2944.4v-105h-121c-140,0-178,12-203,65c-20,41-20,49-1,85c26,50,56,59,198,60
		h127V2944.4z"/>
	<path class="st0" d="M10613.3,2764.4v-445h95h95v190v190h24c43,0,106-95,187-282l42-98h104c57,0,103,2,103,5c0,18-40,116-81,198
		c-57,114-118,207-154,235l-26,21l25,38c13,21,39,74,57,118c43,105,73,135,133,135h46v70v70h-72c-87,0-144-23-177-69
		c-12-17-42-76-67-133c-54-123-86-168-120-168h-24v185v185h-95h-95V2764.4z"/>
	<path class="st0" d="M12313.3,2764.4v-445h90h90l1,293l1,292l75-292l76-293h97h97l52,203c29,111,63,240,76,287l23,85l1-287l1-288
		h90h90v445v445h-144h-144l-68-275c-38-151-71-275-74-275s-36,124-74,275l-68,275h-144h-144V2764.4z"/>
	<path class="st0" d="M13343.3,2764.4v-445h95h95v365v365h160h160v-365v-365h100h100v445v445h-355h-355V2764.4z"/>
	<path class="st0" d="M14298.3,2777.4c-93-237-171-437-173-444c-3-11,18-14,102-14h105l21,58c11,31,28,76,37,100l16,42l170-2l170-3
		l35-97l35-98h98h99l-24,63c-13,34-88,234-166,445l-144,382h-105l-106-1L14298.3,2777.4z M14659.3,2697.4c5-16-4-18-95-18h-100
		l35,98c19,53,42,117,51,141l16,44l43-124C14634.3,2770.4,14656.3,2706.4,14659.3,2697.4z"/>
	<path class="st0" d="M15113.3,2764.4v-445h95h95v190v190h160h160v-190v-190h95h95v445v445h-95h-95v-175v-175h-160h-160v175v175h-95
		h-95V2764.4z"/>
	<path class="st0" d="M16003.3,2764.4v-445h94h93l169,267l169,267l3-267l2-267h90h90v445v446l-92-3l-91-3l-171-274l-171-273l-3,276
		l-2,276h-90h-90V2764.4z"/>
	<path class="st0" d="M17060.3,3198.4c-169-40-252-209-177-364c25-52,89-100,146-111l33-6l-54-65c-85-100-182-250-200-310
		c-6-23-6-23,97-23l103,1l55,90c30,50,88,131,128,180l73,89h69h70v-180v-180h95h95v445v445l-247-1
		C17209.3,3207.4,17081.3,3203.4,17060.3,3198.4z M17403.3,2944.4v-105h-126c-145,0-183,12-208,65c-20,41-20,49-1,85
		c26,50,56,59,203,60h132V2944.4z"/>
</g>
</svg>
