<?xml version="1.0" encoding="UTF-8"?>
<svg width="12894px" height="4874px" viewBox="0 0 12894 4874" version="1.1" xmlns="http://www.w3.org/2000/svg" xmlns:xlink="http://www.w3.org/1999/xlink">
    <!-- Generator: Sketch 47.1 (45422) - http://www.bohemiancoding.com/sketch -->
    <title>Untitled 5</title>
    <desc>Created with Sketch.</desc>
    <defs></defs>
    <g id="Page-1" stroke="none" stroke-width="1" fill="none" fill-rule="evenodd">
        <g id="Krays_logo" transform="translate(380.000000, 787.000000)">
            <path d="M7472.89,2966.85 C7345.6,2966.85 7306.94,2966.86 7179.64,2966.86 C7002.07,2966.86 6914.75,2827.76 6914.75,2693.14 L6914.75,2183.02 L7130.18,2183.02 L7130.18,2770.89 L7472.89,2770.89 L7815.61,2770.89 L7815.61,2183.02 L8031.04,2183.02 L8031.04,2693.14 C8031.04,2827.76 7943.71,2966.86 7766.14,2966.86 C7638.85,2966.86 7600.19,2966.85 7472.89,2966.85 L7472.89,2966.85 Z M3855.04,2476.97 L3855.04,2683.39 L4211.19,2683.39 L4211.19,2763.68 L3518.92,2763.68 L3518.92,2388.87 L4407.03,2388.87 L4407.03,2183.02 C4106.75,2183.02 3947.08,2183.02 3646.82,2183.02 C3448.33,2183.02 3329.9,2215.75 3329.9,2391.22 C3329.9,2530.84 3329.9,2624.06 3329.9,2763.68 C3329.9,2865.8 3424.25,2966.86 3623.38,2966.86 L4113.57,2966.86 C4309.72,2966.86 4407.03,2860.97 4407.03,2726.55 L4407.03,2476.97 L3855.04,2476.97 L3855.04,2476.97 Z M6266.5,2202.61 L6033.72,2202.61 C5884.03,2202.61 5737.76,2234.16 5737.76,2450.03 L5737.76,2584.74 L5737.76,2719.46 C5737.76,2935.32 5884.03,2966.87 6033.72,2966.87 L6266.5,2966.87 L6499.28,2966.87 C6648.97,2966.87 6795.24,2935.32 6795.24,2719.46 L6795.24,2584.74 L6795.24,2450.03 C6795.24,2234.16 6648.97,2202.61 6499.28,2202.61 L6266.5,2202.61 Z M6266.5,2398.58 L5933.58,2398.58 L5933.58,2584.74 L5933.58,2770.9 L6266.5,2770.9 L6599.42,2770.9 L6599.42,2584.74 L6599.42,2398.58 L6266.5,2398.58 Z M0.51,3312.64 L12513.02,3312.64 L12513.02,1799.08 L0.51,1799.08 L0.51,3312.64 Z M9256.1,2437.76 C9242.58,2638.13 9106.41,2689.77 8910.27,2689.77 L8355.22,2689.77 L8355.22,2966.86 L8139.81,2966.86 L8139.81,2183.02 C8440.1,2183.02 8612.73,2183.02 8913.03,2183.02 C9119.61,2183.02 9256.1,2266.9 9256.1,2437.76 Z M8355.22,2496.56 L9060.26,2496.56 L9060.26,2398.58 L8355.22,2398.58 L8355.22,2496.56 Z M5416.17,2692.53 L4750.33,2692.53 L4750.33,2966.86 L4534.91,2966.86 L4534.91,2183.02 L5273.44,2183.02 C5453.32,2183.02 5610.23,2262.13 5611.38,2420.5 C5611.38,2485.33 5597.52,2528.12 5572.87,2565.14 C5572.87,2577.27 5612.03,2605.14 5612.03,2693.35 L5612.03,2966.86 L5416.17,2966.86 L5416.17,2692.53 L5416.17,2692.53 Z M4750.33,2476.97 L5416.17,2476.97 L5416.17,2398.58 L4750.33,2398.58 L4750.33,2476.97 Z" id="Shape" fill="#F8010A"></path>
            <path d="M2583.25,1646.3 L3014.11,1646.3 L3014.11,1038.8 L4463.33,1038.8 L4463.33,1646.3 L4874.58,1646.3 C4874.58,1424.21 4874.58,1402.89 4874.58,1180.81 C4877.72,941.7 4795.13,823.25 4748.83,823.25 C4769.91,795.48 4857.31,746.06 4854.99,519.49 C4853.83,151.68 4566.66,0.19 4194.13,0.76 L2583.25,0.19 L2583.25,1646.3 Z M3014.11,431.32 L3014.11,607.69 L4443.73,607.69 L4443.73,431.32 L3014.11,431.32 L3014.11,431.32 Z" id="Shape" fill="#000000"></path>
            <path d="M0.51,823.24 L0.51,0.19 L470.53,0.19 L470.53,705.23 C523.97,518.33 878.23,359.76 1497.16,0.19 L2311.44,0.19 L920.96,823.24 L2311.44,1646.28 L1497.16,1646.28 C878.23,1286.71 523.97,1128.14 470.53,941.24 L470.53,1646.28 L0.51,1646.28 L0.51,823.24 Z" id="Shape" fill="#000000"></path>
            <path d="M6225.74,1215.17 L5814.47,1215.17 L5599.05,1646.3 L5129.03,1646.3 L5755.72,392.12 C5804.79,313.3 5932.59,0.19 6225.74,0.19 C6518.88,0.19 6646.68,313.3 6695.76,392.12 L7322.44,1646.3 L6852.42,1646.3 L6637,1215.17 L6225.74,1215.17 Z M6225.74,803.65 L6029.91,803.65 L6225.74,452.41 L6421.56,803.65 L6225.74,803.65 Z" id="Shape" fill="#000000"></path>
            <polygon id="Shape" fill="#000000" points="8686.76 1646.3 8490.94 1646.3 8490.94 1156.39 7556.54 0.19 8081.13 0.19 8686.76 762.63 9292.39 0.19 9816.98 0.19 8882.58 1156.39 8882.58 1646.3"></polygon>
            <path d="M10631.06,1038.8 L12078.71,1038.8 L12078.71,1234.76 L10100.73,1234.76 L10100.73,1646.3 L11861.2,1646.3 C12718.36,1646.3 12730.04,607.67 11864.25,607.67 L10416.6,607.67 L10416.6,411.71 L12394.58,411.71 L12394.58,0.17 L10634.11,0.17 C9776.95,0.17 9765.28,1038.8 10631.06,1038.8 Z" id="Shape" fill="#000000"></path>
        </g>
    </g>
</svg>