<?xml version="1.0" encoding="utf-8"?>
<!-- Generator: Adobe Illustrator 22.0.1, SVG Export Plug-In . SVG Version: 6.00 Build 0)  -->
<svg version="1.1" id="Слой_1" xmlns="http://www.w3.org/2000/svg" xmlns:xlink="http://www.w3.org/1999/xlink" x="0px" y="0px"
	 width="227.8px" height="100.8px" viewBox="0 0 227.8 100.8" style="enable-background:new 0 0 227.8 100.8;" xml:space="preserve"
	>
<style type="text/css">
	.st0{fill:#3BC7F2;}
	.st1{fill:#FFFFFF;}
</style>
<rect x="-1" y="0.8" class="st0" width="229.7" height="101"/>
<g>
	<path class="st1" d="M18.9,21.7v17c0,6.4-0.1,11.7-0.5,17.1l0.1,0.1c2-4.2,4.5-8.6,7.4-13.4l13-20.8h5.2v40.4h-4.9V44.9
		c0-6.5,0.1-11.3,0.5-16.4l-0.2-0.1c-2,4.4-4.7,9.1-7.4,13.6L19.5,62.2H14V21.7H18.9z"/>
	<path class="st1" d="M58.3,21.7v16.9h19.4V21.7h5.2v40.4h-5.2v-19H58.3v19h-5.2V21.7H58.3z"/>
	<path class="st1" d="M119.9,60.8c-1.9,1-5.7,1.9-10.6,1.9c-11.3,0-19.8-7.2-19.8-20.5c0-12.7,8.5-21.2,20.9-21.2
		c5,0,8.1,1.1,9.5,1.8l-1.2,4.3c-2-1-4.8-1.7-8.1-1.7c-9.4,0-15.6,6.1-15.6,16.7c0,9.9,5.6,16.3,15.4,16.3c3.2,0,6.4-0.7,8.4-1.7
		L119.9,60.8z"/>
	<path class="st1" d="M136.1,26.2h-12.2v-4.4h29.7v4.4h-12.2v36h-5.2V26.2z"/>
	<path class="st1" d="M178.8,43.2h-15.6v14.6h17.4v4.4H158V21.7h21.6v4.4h-16.5v12.8h15.6V43.2z"/>
	<path class="st1" d="M216.2,21.7v40.4h-5.2V26.1h-18.6v36.1h-5.2V21.7H216.2z"/>
</g>
<g>
	<path class="st1" d="M18.8,78c-0.5,0.3-1.5,0.6-2.8,0.6c-2.9,0-4.8-2.3-4.8-5.7c0-3.4,2-5.9,5.2-5.9c1,0,1.9,0.3,2.4,0.6l-0.4,1.6
		c-0.4-0.3-1.1-0.5-2-0.5c-2.2,0-3.4,1.9-3.4,4.2c0,2.6,1.4,4.2,3.3,4.2c1,0,1.6-0.3,2.1-0.6L18.8,78z"/>
	<path class="st1" d="M27.6,67.3v1.6h-3v9.5h-1.7v-9.5h-3v-1.6H27.6z"/>
	<path class="st1" d="M29.2,70.9c0-1.4,0-2.6-0.1-3.6h1.6l0.1,1.9h0c0.7-1.4,1.8-2.2,3.4-2.2c2.3,0,4.1,2.3,4.1,5.7c0,4-2.1,6-4.4,6
		c-1.3,0-2.4-0.6-3-1.7h0v6h-1.7V70.9z M30.9,73.9c0,0.3,0,0.6,0.1,0.8c0.3,1.4,1.4,2.4,2.6,2.4c1.8,0,2.9-1.7,2.9-4.3
		c0-2.2-1-4.1-2.9-4.1c-1.2,0-2.3,1-2.6,2.5c-0.1,0.3-0.1,0.6-0.1,0.8V73.9z"/>
	<path class="st1" d="M49.1,72.8c0,4.1-2.5,5.9-4.8,5.9c-2.6,0-4.6-2.2-4.6-5.7c0-3.7,2.1-5.9,4.8-5.9C47.3,67,49.1,69.4,49.1,72.8z
		 M41.5,72.9c0,2.4,1.2,4.3,2.9,4.3c1.7,0,2.9-1.8,2.9-4.3c0-1.9-0.8-4.3-2.9-4.3S41.5,70.8,41.5,72.9z"/>
	<path class="st1" d="M52.9,67.3V72c0,1.8,0,2.9-0.1,4.5l0.1,0c0.6-1.4,0.9-2.1,1.5-3.4l3-5.7h2v11.1h-1.7v-4.7c0-1.8,0-2.8,0.1-4.6
		h-0.1c-0.6,1.4-1,2.3-1.6,3.4c-0.9,1.7-2,3.9-3,5.8h-2V67.3H52.9z"/>
	<path class="st1" d="M68.7,67.3v1.6h-3v9.5H64v-9.5h-3v-1.6H68.7z"/>
	<path class="st1" d="M71,73.2c0,2.7,1.5,3.9,3.3,3.9c1.2,0,2-0.3,2.7-0.6l0.3,1.4c-0.6,0.3-1.7,0.7-3.2,0.7c-3,0-4.7-2.3-4.7-5.6
		s1.7-6,4.5-6c3.1,0,4,3.2,4,5.2c0,0.4,0,0.7-0.1,0.9H71z M76.1,71.8c0-1.3-0.5-3.3-2.4-3.3c-1.8,0-2.5,1.9-2.7,3.3H76.1z"/>
	<path class="st1" d="M87.2,67.3v11.1h-1.7v-9.5h-3.3v2.9c0,3.1-0.3,5.2-1.5,6.2c-0.5,0.4-1,0.7-1.9,0.7L78.6,77
		c0.3-0.1,0.7-0.2,1-0.5c0.9-0.8,1-2.3,1-4.8v-4.5H87.2z"/>
	<path class="st1" d="M91.8,67.3v3.8c0.4-0.1,1.1-0.1,1.6-0.1c2.2,0,4.4,0.8,4.4,3.7c0,1.2-0.4,2-1,2.6c-1.1,1-2.8,1.3-4.2,1.3
		c-1,0-1.9-0.1-2.6-0.2V67.3H91.8z M91.8,77c0.3,0,0.7,0.1,1.3,0.1c1.3,0,3-0.5,3-2.4c0-1.9-1.7-2.3-3-2.3c-0.5,0-0.9,0-1.2,0.1V77z
		"/>
	<path class="st1" d="M101.6,67.3v4.5h4.6v-4.5h1.7v11.1h-1.7v-5h-4.6v5h-1.7V67.3H101.6z"/>
	<path class="st1" d="M116.1,78.4L116,77h-0.1c-0.5,0.9-1.6,1.7-2.9,1.7c-1.9,0-2.9-1.6-2.9-3.2c0-2.7,2.1-4.2,5.8-4.1v-0.2
		c0-0.9-0.2-2.6-2.2-2.6c-0.9,0-1.8,0.3-2.5,0.8l-0.4-1.3c0.8-0.6,1.9-1,3.2-1c2.9,0,3.6,2.3,3.6,4.6v4.2c0,1,0,1.9,0.2,2.7H116.1z
		 M115.8,72.7c-1.9,0-4.1,0.3-4.1,2.5c0,1.3,0.8,1.9,1.6,1.9c1.2,0,2-0.9,2.3-1.9c0.1-0.2,0.1-0.4,0.1-0.6V72.7z"/>
	<path class="st1" d="M127.5,78.4h-1.7v-4.7h-1.3c-0.7,0-1.2,0.2-1.6,0.6c-0.7,0.7-1,2-1.3,3.1c-0.1,0.3-0.3,0.6-0.4,0.9h-1.9
		c0.2-0.4,0.4-0.8,0.6-1.3c0.4-1.1,0.7-2.5,1.5-3.4c0.3-0.3,0.7-0.6,1.1-0.6v-0.1c-1.2-0.2-2.5-1.1-2.5-2.8c0-1.2,0.5-1.9,1.3-2.4
		c0.8-0.5,2-0.8,3.2-0.8c1.1,0,2.3,0.1,3.1,0.2V78.4z M125.7,68.6c-0.4-0.1-0.8-0.1-1.4-0.1c-1.2,0-2.6,0.4-2.6,1.9
		c0,1.4,1.5,1.9,2.6,1.9c0.7,0,1.1,0,1.5,0V68.6z"/>
	<path class="st1" d="M136.2,67.3v4.8h0.4l3.6-4.8h2.1l-4.2,5c1.5,0.2,2.5,1.4,3.2,3.4c0.3,0.7,0.6,1.8,1,2.7h-1.8
		c-0.3-0.5-0.6-1.4-0.9-2.3c-0.7-1.8-1.5-2.6-3.2-2.6h-0.3v4.9h-1.7V67.3H136.2z"/>
	<path class="st1" d="M152.6,72.8c0,4.1-2.5,5.9-4.8,5.9c-2.6,0-4.6-2.2-4.6-5.7c0-3.7,2.1-5.9,4.8-5.9
		C150.7,67,152.6,69.4,152.6,72.8z M145,72.9c0,2.4,1.2,4.3,2.9,4.3c1.7,0,2.9-1.8,2.9-4.3c0-1.9-0.8-4.3-2.9-4.3S145,70.8,145,72.9
		z"/>
	<path class="st1" d="M154.9,67.3h2.1l1.7,5.6c0.2,0.8,0.7,2.2,0.9,3.1h0c0.2-0.8,0.8-2.6,1.1-3.8l1.5-4.9h2.2l0.7,11.1h-1.7
		l-0.2-5.3c-0.1-1.2-0.1-2.6-0.2-4h-0.1c-0.3,1-0.5,1.9-1.1,3.6l-1.8,5.6h-1.3l-1.7-5.5c-0.3-1.1-0.7-2.7-1-3.7h-0.1
		c0,1.3-0.1,2.8-0.2,4l-0.2,5.3h-1.6L154.9,67.3z"/>
	<path class="st1" d="M175.3,67.3v11.1h-1.7v-9.5h-4.5v9.5h-1.7V67.3H175.3z"/>
	<path class="st1" d="M183.5,78.4l-0.1-1.4h-0.1c-0.5,0.9-1.6,1.7-2.9,1.7c-1.9,0-2.9-1.6-2.9-3.2c0-2.7,2.1-4.2,5.8-4.1v-0.2
		c0-0.9-0.2-2.6-2.2-2.6c-0.9,0-1.8,0.3-2.5,0.8l-0.4-1.3c0.8-0.6,1.9-1,3.2-1c2.9,0,3.6,2.3,3.6,4.6v4.2c0,1,0,1.9,0.2,2.7H183.5z
		 M183.2,72.7c-1.9,0-4.1,0.3-4.1,2.5c0,1.3,0.8,1.9,1.6,1.9c1.2,0,2-0.9,2.3-1.9c0.1-0.2,0.1-0.4,0.1-0.6V72.7z"/>
	<path class="st1" d="M189.4,67.3v4.5h4.6v-4.5h1.7v11.1H194v-5h-4.6v5h-1.7V67.3H189.4z"/>
	<path class="st1" d="M200.2,67.3V72c0,1.8,0,2.9-0.1,4.5l0.1,0c0.6-1.4,0.9-2.1,1.5-3.4l3-5.7h2v11.1H205v-4.7c0-1.8,0-2.8,0.1-4.6
		h-0.1c-0.6,1.4-1,2.3-1.6,3.4c-0.9,1.7-2,3.9-3,5.8h-2V67.3H200.2z"/>
	<path class="st1" d="M216.6,78.4h-1.7v-4.7h-1.3c-0.7,0-1.2,0.2-1.6,0.6c-0.7,0.7-1,2-1.3,3.1c-0.1,0.3-0.3,0.6-0.4,0.9h-1.9
		c0.2-0.4,0.4-0.8,0.6-1.3c0.4-1.1,0.7-2.5,1.5-3.4c0.3-0.3,0.7-0.6,1.1-0.6v-0.1c-1.2-0.2-2.5-1.1-2.5-2.8c0-1.2,0.5-1.9,1.3-2.4
		c0.8-0.5,2-0.8,3.2-0.8c1.1,0,2.3,0.1,3.1,0.2V78.4z M214.9,68.6c-0.4-0.1-0.8-0.1-1.4-0.1c-1.2,0-2.6,0.4-2.6,1.9
		c0,1.4,1.5,1.9,2.6,1.9c0.7,0,1.1,0,1.5,0V68.6z"/>
</g>
</svg>
